<?xml version="1.0" encoding="UTF-8"?>
<svg version="1.1" viewBox="0 0 1184 864" width="1184" height="864" xmlns="http://www.w3.org/2000/svg">
<path transform="translate(0)" d="m0 0h1184v864h-1184z" fill="#EBECE4"/>
<path transform="translate(726,153)" d="m0 0h3l-2 5-4 11-1 3-1 15 3 18 8 16 8 15 2 7 12-18 11-8 17-9 10-3h3v8l-5 23-4 10-6 9-7 7v3l16 3 17 6 7 1h9l16-4 10-5 9-7 1 2-4 8-6 8-5 5-11 7-11 3 2 4 9 6 9 8 7 14-1 3-2-1v-2l-16-8-16-5-25-5-14-5-10-6-5-4-10 1-13 2-8 7-12 14-8 10-9 10-2 3h-2l-2 4-10 12-6 8-12 17-15 24-8 14-9 19-9 21-9 27-7 26-5 29-1 18-1 1-22 1-15-1-2-5-3-19-4-15-8-20-8-12-1-3h-2l-6-8-10-10-16-12-9-6-16-7-5-1-14 8-15 5-7 2h-28l-13-3-15-6-11-7-13-10v-2l-4-2-8-9-10-13-11-19-2-7h26l27-6 17-4 15-1 15 1 13 4 12 6 10 8 7 8 6 10 2 4v5l-16-6-14-3-20-3-15-1h-16l-3 1 39 8 36 12 22 9 19 10 12 8 9 7 10 9 8 8v2h3l-4-16-8-20-4-12-7-14-9-20-13-23-13-21-8-11-10-13-7-9-3-4v-2l-17-2h-7l-9 6-16 8-31 8-12 5-8 5-3 3h-2l1-6 4-8 5-5 11-9 5-5-13-3-10-6-7-8-4-8 3-1 12 6 13 3h16l10-2 16-6 7-1-2-4-11-14-5-13-5-23v-3l7 1 23 11 8 6 8 9 3 5v2h3l1-7 7-17 6-16 1-5v-16l-3-12-3-6v-3l4 2 9 10 4 6 4 14v10l5-3 14-14 5-3 12-2-2 4-7 8-8 14-6 17-6 12-9 12-8 9-1 6v14l1 7 7 9 12 14 10 14 7 10 10 15 6 10 10 19 9 19h1l1-21 3-20 6-27 8-24 5-10 8-17 2-6-9 10-13 25-8 16-3 7h-2l-4-12-1-6v-21l2-9 6-12 7-9 7-8 14-11 14-13 8-11h2l7 18 5 17 2 11v23l-3 13-8 16-4 6-4 5h-2l-2 4-14 8-11 6-1 2v14l9 20 10 23 8 16v6l-7 15-4 13-2 12v14l2 1 3-9 8-20 7-15 11-24 12-21 10-16 10-15 9-12h2l2-4 11-13 7-8 4-5h2l2-4 14-15 7-7 7-8 11-13 1-6v-16l-2-4-8-7-6-7-6-10-7-14-8-20-10-15-7-7 1-2 15 3 14 12 4 5 3 1 4-20 4-8 10-13h2v-2z" fill="#436347"/>
<path transform="translate(766,79)" d="m0 0h16l9 4 13 7-1 6-3 5-3 2-1 4 6-4 4-4 6-4 2-2 12-4 15-1 17 3 10 5 8 6 3 5 8 10 5 11 1 8v12l-2 7-15 1v2l5 3 5 2 3 3 2 17-6 15-2 6-5 1-2-7-4-11-3-19-5-11-4-7-5-4-1-3-6-3-3-3-12-4-2-1h-20l1 3 9 2 14 7 5 4 5 5 4 3 3 7 4 9 1 8v16l-3 10-3 7-5 10h3v-2l5-5 7-6h4v4h-2v7l-2 3-2 8-5 10-5 6-4 2h-3v2l-9 5h-17l-3-3 2-3h2v-2h2v-2l2-1v-2h-6l-12 5-5 2-7-1-5 2v-5l3-6 5-21 3-17-16 5-19 10-9 7-6 7-4 7-2-3-12-23-4-8-2-12-1-2v-10l1-10 3-9 5-9v-2l-5 1-3 5h-2l-2 4-8 10-3 3-3 7-2 13-2 2-6-7-8-7-2-9-1-7 1-17 5-12 6-10 10-10 10-5 20-4 4-1 1 1h7l-1-1-10-2-2-2 1-5 3-3h2l2-4 9-7 9-4z" fill="#EBECE5"/>
<path transform="translate(413,108)" d="m0 0h16l8 3 5 3v2l4 1 5 5v2h2l1 4-2 5 13 2 13 5 9 7 3 3v3l4 2 5 7 3 11 1 15-2 14-14 14h-1l-3-16-6-11-11-12-3-3h-3l3 9 5 12v21l-6 18-7 15-2 6h-2l-7-9-2-4-4-2-21-11-11-5-5-1 1 8 6 25 6 12 2 7-9-2-1-3 1-5-11-1-5 1-1 5 6 1-1 4-13 1h-7l-10-2-3-3-5-3-7-5-3-5-5-6v-5l-1-4v-5l-2-6 5 2 7 7 1-3-3-3-3-8-3-11-1-9 2-13 3-1 2-9 6-8 4-2 5-5 11-6 9-2 5-2-9-1h-14l-10 4-4 3-5 3-5 6-4 4-3 7-2 5-3 8-1 10v8l-4 10-5 3-2-5-1-4-5-10v-14l2-3h2l2-5 7-5v-1h-13l-3-6v-17l4-12 6-8h2l2-4 9-7 11-5 13-3 17 1 10 4 8 6 6 5 4 2-2-5-7-10 1-3 4-3h2l2-4 9-4z" fill="#EBECE5"/>
<path transform="translate(744,305)" d="m0 0h13l16 8 5 3 1 2 5 61 9 105 2 18 4 16 5 12 5 6 7 5 15 5 12 2 3 2v8l-1 1h-154l-1-1v-8l2-2 14-3 10-5 5-5 3-5 2-6v-28l-3-45-4-50-3-40-2-25 11-12 1-2h2l2-5 6-7h2v-2z" fill="#436347"/>
<path transform="translate(762,69)" d="m0 0h21l7 3 9 3 10 7 1 3 10-4 7-2h26l10 3 14 8 7 5 9 11 6 11 3 6 2 9v26l9 7 5 5 7 8 4 8 3 16v10l-4 14-4 8-9 11-5 5-1 20-5 14-3 6-3 3-2 4h-2v2l-11 8-10 5-6 2-7 1h-13l2 8 1 6-4-1-1-2h2l-2-6-5-10-10-9-9-6v-4l13-4 10-7h2l2-4 7-10 2-6-10 8-11 5-14 3h-9l-11-2-16-6-13-2-1-4 9-9 6-11 4-14 3-15 1-8-15 5-17 9-7 6h-2l-2 5-4 5-5 9-2-1-4-11-9-17-5-10-3-20 1-13 4-12 4-7-6 2 5-5 4 1-2 5-3 6-3 9-1 13v7l1 2 2 12 8 16 9 17 5-8 8-9 15-9 15-7 7-2h4l-1 11-5 23-5 15h2l1-2 4-1 5 1 11-5 9-2 4 1-1 3h-2v2h-2v2h-2v4l1 1h17l7-4h2v-2l7-3 6-8 4-9 2-8 1-2 1-6h2v-4l-5 2-6 5-3 4h-2v2h-3l3-9 2-2 3-8 2-8v-16l-1-8-4-9-2-3v-4l-4-2-5-5-8-6-5-2-9-4-6-1-3-2h2v-2l7-1h13l11 4 5 3 4 3 4 2 3 5 5 5 5 10 2 5 3 19 4 11 1 6h5l2-8 5-14-2-16-3-3-8-3-3-3 2-2 15-1 1-6v-12l-2-11-6-11-8-9-2-4-13-8-13-3-12-1-13 2-10 4-5 4-4 1-2 4-5 4-2-1 2-5 3-2 4-10-6-2-10-6-6-2h-16l-10 3-8 5-6 5-6 7 1 4 10 2 2 3h-8l-3-1-15 4-10 2-8 5h-2l-2 4-6 7-3 6-3 5-3 8-1 18 3 15 8 7 5 6 1-1 2-13 5-10 1 2-3 8-3 17-2 1-5-5-12-11-7-3-11-2 3 5-6-3v-4h12l-2-8v-18l2-8 5-12 8-10 10-9 9-5 13-5 3-1 1-4 5-7 16-14 11-5z" fill="#E4D5BA"/>
<path transform="translate(417,97)" d="m0 0 14 1 10 4 13 10 9 11 2 3 12 4 11 6 10 8 5 6 9 19 1 20v7h10l-2 4-7 7v-3l5-6-11 2-8 6-13 13h-3l-2-15-4-11-9-11-6-5 6 15 1 6v16l-3 11-10 24-3 10h-3l-7-11-7-7-17-9-13-6-5-1 7 30 6 12 11 13-1 3-10 2-16 6-7 1h-16l-13-3-12-6h-2l4 8 7 8 12 6 10 3-2 4-13 10-3 1-7 14-1 4 4-2-2 4h-3l-1-4 3-8-18-1-11-4-10-6-5-4-8-10-5-12-2-9-2-13-5-5-8-9-2-5-4-8-2-9v-17l3-11 4-6 9-10h2l1-3 4-4v-27l4-13 6-10 3-4h2l2-4 8-6 6-4 13-6 18-2 12 2 8 3 6-1 5-5 9-6 11-4zm-4 11-11 4-3 3v2l-4 2-3 3 3 5 6 9-1 2-8-6-6-5-10-5-3-1-17-1-16 4-11 6-8 7v2l-4 2-5 8-3 10v17l3 6h13l-9 9v2l-3 1-1 5v11l5 10 1 4 2 5 6-4 3-11v-11l3-12 3-5 2-5 1-3 4-4 7-8 14-7 9-1h13l4 1-7 3-9 2-11 6-10 10-3 4-2 9-3 1-2 15 3 14 3 10 2 4 2 1-1 3-8-8-4-1 2 6v8l1 5 4 6 3 3 2 4 6 4 10 7 15 1 13-1 1-4-6-1 1-5 9-1 7 1-1 6 1 2 9 2-2-7-6-12-7-30v-3l9 3 25 12 5 4h2l2 4 7 9h2l4-11 6-13 5-15v-21l-5-12-3-9 4 1 10 10 7 11 3 7 2 13 7-6 8-8 2-16-1-13-3-11-7-9h-2l-1-4-8-7-10-5-10-3-9-1 2-7-1-2h-2l-2-4-4-4h-3l-1-3-8-4-4-1z" fill="#E4D5BA"/>
<path transform="translate(1008,632)" d="m0 0 6 1 3 5 2 13 4-2 10-13 5-4 5 1 1 3-6 7-8 7-7 7-1 2v7l4 10 3 2 7-1 4-5 4-7 3-4h3v6l-8 12-8 7-5 2h-7l-6-4-4-6-1-5-5 2-11 13h-4l1-5 13-15 2-2-2-18-3 3-8 16-11 13-10 6-6 2h-9l-8-4-6-7-1-4-8 4-15 8-7 2h-11l-3-3-1-3 1-1 9-1 8-7 5-11 2-6v-12l-5-1-8 7-6 10-5 12-15 45-2 3-6 1-4-3 1-9 3-10 5-13 1-4-10 6-8 1-5-3-2-3v-9l6-22 1-7-5 1-6 5-7 10-6 14-4 12-9 1-2-2v-8l9-27v-6l-5 1-8 10-6 9-7 18-3 5-5 1-3-1-1-2v-10l8-26 4-14 1-1h10l2 5-2 9 3-1 2-4 6-7 6-3h9l3 4 1 6-1 4 3-1 7-8 5-4 2-1h9l5 5-1 12-7 19-1 10 6-1 5-4 6-9 6-15 5-16 1-1h10l1 2-2 8 4-1v-2l9-7h8l6 3 3 8-1 10-4 11-6 11 10-5 5-4 7-18 9-11 9-5h14l5 4 1 2v8l-4 6-8 7-16 7-1 5 2 5 6 2 7-1 8-4 8-10 5-9 4-8 3-8 3-5z" fill="#436347"/>
<path transform="translate(762,69)" d="m0 0h21l7 3 9 3 10 7 1 3 10-4 7-2h26l10 3 14 8 7 5 9 11 6 11 3 6 2 9v26l9 7 5 5 7 8 4 8 3 16v10l-4 14-4 8-9 11-5 5-1 20-5 14-3 6-3 3-2 4h-2v2l-11 8-10 5-6 2-7 1h-13l2 8 1 6-4-1-1-2h2l-2-6-5-10-10-9-9-6v-4l13-4 10-7h2l2-4 7-10 2-6-10 8-11 5-14 3h-9l-11-2-16-6-13-2-1-4 9-9 6-11 4-14 3-15 1-8-15 5-17 9-7 6h-2l-2 5-4 5-5 9-2-1-4-11-9-17-5-10-3-20 1-13 4-12 4-7-6 2 5-5 4 1-2 5-3 6-3 9-1 13v7l1 2 2 12 8 16 9 17 5-8 8-9 15-9 15-7 7-2h4l-1 11-5 23-3 9-6 9-5 5-3 4h7l24 8 6 1h11l16-4 12-6 7-7h3l1 3-6 11-4 6-8 9-14 7-5 1-1 2 6 2 10 8h15l5-1 9-2 6-2v-2l4-2 10-10h2l1-4 5-8 2-8 1-13-1-12-6-15-1-4h3l4 5 6 12 5-5 6-10 3-9 1-13-2-12-6-10-8-8-10-7-4-2-1-4 4-1 2-13v-9l-1-9-7-13-4-6-3-2v-2h-3l-4-4-11-7-13-3-12-1-13 2-10 4-5 4-4 1-2 4-5 4-2-1 2-5 3-2 4-10-6-2-10-6-6-2h-16l-10 3-8 5-6 5-6 7 1 4 10 2 2 3h-8l-3-1-15 4-10 2-8 5h-2l-2 4-6 7-3 6-3 5-3 8-1 18 3 15 8 7 5 6 1-1 2-13 5-10 1 2-3 8-3 17-2 1-5-5-12-11-7-3-11-2 3 5-6-3v-4h12l-2-8v-18l2-8 5-12 8-10 10-9 9-5 13-5 3-1 1-4 5-7 16-14 11-5z" fill="#C6B89B"/>
<path transform="translate(576,596)" d="m0 0h6l2 3-2 10-13 37-2 7 5-5 7-9 7-5h11l3 3v7l-4 13-5 15 1 6 5-1 5-5 4-6 8-16 9-12 7-4 2-1h10l3 3 4-1 1-1h8l1 5-8 27-1 10 5 1 5-4 10-16 6-18v-3l-4-1 1-4 6-2 4-13 4-5 2-1h7l1 5-3 11v4l11 1-1 4-13 1-2 3-7 25-1 4v7l3 3 7-2 7-8 4-7 5-1-1 6-6 10-9 9-8 3-9-1-4-3-3-8-4 2-5 5-6 4-7 1-5-3-3-6-4 1-8 6-2 1h-9l-5-5-2-3-4 1-8 6-4 2-9-1-3-3-1-3v-8l8-26v-4l-7 4-8 10-6 10-7 17-4 3-8-1 1-8-5 3-9 6h-8l-5-4-1-3v-11l4-15 7-19 4-2h6l2 1-1 6-8 27-1 10 7-1 4-2 2-4 8-12 6-18 7-26 6-15z" fill="#436347"/>
<path transform="translate(417,97)" d="m0 0 14 1 10 4 13 10 9 11 2 3 12 4 11 6 10 8 5 6 9 19 1 20v7h10l-2 4-7 7v-3l5-6-11 2-8 6-13 13h-3l-2-15-4-11-9-11-6-5 6 15 1 6v16l-3 11-10 24-3 10h-3l-7-11-7-7-17-9-13-6-5-1 7 30 6 12 11 13-1 3-10 2-16 6-7 1h-16l-13-3-12-6h-2l4 8 7 8 12 6 10 3-2 4-13 10-3 1-7 14-1 4 4-2-2 4h-3l-1-4 3-8-18-1-11-4-10-6-5-4-8-10-5-12-2-9-2-13-5-5-8-9-2-5-4-8-2-9v-17l3-11 4-6 9-10h2l1-3 4-4v-27l4-13 6-10 3-4h2l2-4 8-6 6-4 13-6 18-2 12 2 8 3 6-1 5-5 9-6 11-4zm-4 11-11 4-3 3-7 4-2 5 2 4-11-6-8-3-15-1-15 3-7 3-8 5-10 9-7 10-3 7-1 10 2 17 7 3-1 3-6 3-10 6-8 9-2 4v5h-2l-2 12 2 13 4 9 5 8 2 3h4l4-10 4-5v-2h2l-6 20 1 19 1 7 5 10 4 5 1 3 11 8 8 3 14 3h8l4 1 16-12-2-2-10-3-9-5-8-10-5-9v-3l4 1 14 8 13 3h19l11-4 8-3 8-2-2-5-8-11-5-12-6-27v-3l9 3 25 12 5 4h2l2 4 7 9h2l4-11 6-13 5-15v-21l-5-12-3-9 4 1 10 10 7 11 3 7 2 13 7-6 8-8 2-16-1-13-3-11-7-9h-2l-1-4-8-7-10-5-10-3-9-1 2-7-1-2h-2l-2-4-4-4h-3l-1-3-8-4-4-1z" fill="#C6B89B"/>
<path transform="translate(406,467)" d="m0 0 27 1 1 1v43l3 14 4 8 9 7 11 4 14 2 2 3v6l-2 2h-120l-1-1v-9l15-4 15-6 1-3 5-5 4-8 5-16 4-22 2-16z" fill="#436347"/>
<path transform="translate(313,632)" d="m0 0 6 1 4 3 4-2 9 1-1 9-7 26v6l4 1 8-7 5-8 6-14 10-11 8-4h10l3 3 4-1 5-1 4 2-2 10-5 20-1 11 7-1 7-8 5-8h3l-1 7-4 7h-2l-2 4-5 5-6 4-8 1-6-4-1-6-5 3-3 1v2l-5 3h-10l-5-5-2-5-4 1-7 7-6 3h-6l-4-2-3-6-4 1-6 5-5 2-10-2-4-7v-16l5-13 6-8 8-7z" fill="#436347"/>
<path transform="translate(278,591)" d="m0 0h7l4 2-1 8-6 15-8 30-3 17v19l4 9 1 3-3 2h-8l-5-3-3-6-1-7v-9l3-20 6-22 4-10 1-5-3 3-7 12-7 13-6 11-9 16-7 14-2 5h-8l-3-4v-15l2-19 7-35h-2l-8 18-5 13-5 9-9 17-9 14-10 11-8 4-8 1-8-4-2-6 1-4h13l10-6 8-8 7-10 4-7 12-23 16-32 6-9 2-1h10l1 1-1 13-6 30-3 23h2l10-18 13-23 8-13 9-12z" fill="#436347"/>
<path transform="translate(540,585)" d="m0 0h10l5 4-1 4-12 5-8 7-9 12-15 27-6 9-10 18-5 7-5 9-5 5-4 2-7-1-3-3-1-3v-20l7-40 1-10v-10l-3-7-7-1-7 3-5 6-3 9-1 8 2 10v4h-7l-5-3-3-7v-9l4-10 7-9 11-7 3-1h15l8 5 4 8 1 11-1 14-4 24-3 16v9l4-1 2-5 12-22 8-15 12-22 7-13 8-10 7-6z" fill="#436347"/>
<path transform="translate(507,245)" d="m0 0 3 3 12 26 7 15-2 24v11l3 13 10 21-1 10h-2l-9-13-8-14-20-26-6-8-10-14-1-4v-8l6-9 7-8 10-18z" fill="#436347"/>
<path transform="translate(806,592)" d="m0 0h5v4l-4 2-2 6-7 19-7 22-6 18-8 15-6 9-10 8-8 3h-10l-7-3-4-5-1-9h4l5 7 2 1h8l5-3 9-10 7-14 12-36 7-16 5-9-9 2-12 7-10 8-5 10v13l2 4v3l-5 1-7-2-4-5-2-5 1-11 7-11 14-10 8-4 13-5 12-3z" fill="#436347"/>
<path transform="translate(689,247)" d="m0 0h3l9 11 6 7 1 5-1 10-7 9-15 15-7 8-12 12-7 8-12 14-2 1 1-5 7-16 6-12 5-12 11-23 12-29z" fill="#436347"/>
<path transform="translate(756,143)" d="m0 0h7v4l-5 4h-2l-2 4-3 2-4 8h-2l-2 6-2 4v7l-1 4 1 8 2 3 2 7 4 4 2 5 4 4v3l2 1-10 11-4 7-2-3-12-23-4-8-2-12-1-2v-10l1-10 3-9 6-12 1 3 9-3 5-4z" fill="#E4D5BA"/>
<path transform="translate(766,79)" d="m0 0h16l9 4 13 7-1 6-3 5-3 2-1 4 6-4 4-4 6-4 2-2 12-4 15-1 17 3 10 5 8 6v2l-4-2-7-5-6-3-19-3-15 1-12 5-9 7-8 8-4-1 3-9 6-7 1-4-6-2-10-6-3-1h-17l-8 2-8 4-6 5-3 4h-2l-2 5 9 2 9 4 6 3 2 5-5-1-9-3h-19l-10 3-3 2-2 4-4 1v2l-4 1-2 7-4 8-2 5v16l3 8 3 6 2-1-1 5-2 8-2 9-5-5-6-5-4-4-2-9-1-7 1-17 5-12 6-10 10-10 10-5 20-4 4-1 1 1h7l-1-1-10-2-2-2 1-5 3-3h2l2-4 9-7 9-4z" fill="#E4D5BA"/>
<path transform="translate(433,166)" d="m0 0 9 2 10 5 6 2 1-3 3 1-2 1 3 9 5 12v21l-6 18-7 15-2 6h-2l-7-9-2-4-4-2-4-3 1-2 8-4 2-3h2l3-9 2-5 2-7 3-1-1-3-5-3-1-7-3-3-1-5-3-3v-2h-2l-3-3-2-1v-2l-6-2-1-4z" fill="#E4D5BA"/>
<path transform="translate(413,108)" d="m0 0h16l8 3 5 3v2l4 1 5 5v2h2l1 4-2 5 13 2 13 5 9 7 3 3v3l4 2 5 7 3 11 1 15-2 14-14 14h-1l-3-16-2-6h2l2-6 1-7 1-1v-14l-1-9h-2l-1-5h-2l-1-4-4-2v-2l-6-2v-2l-5-2-7-1h-14l-12 4h-2v-3l9-6 2-2 9-2-1-4-5-5-5-4-10-4-11-1-15 3v2l-4 1 5-5z" fill="#E3D4B9"/>
<path transform="translate(443,318)" d="m0 0 5 1-1 26-2 15-6-1-16-4-5-2 2-24 16-8z" fill="#436347"/>
<path transform="translate(770,733)" d="m0 0h10l6 4 4 6v11l-4 6-5 4-7 1-9-3-5-6-1-2v-11l5-7z" fill="#E7E6DD"/>
<path transform="translate(918,641)" d="m0 0 5 1 1 1v12l-5 13-4 6-7 6-9 1 1 5h13l7-1-2 2-7 2h-8l-5-3-2-2-9 27-3 7-3 3h-6l-5-4 2-12 3-7 1 3-3 10v6l3 2h6l3-10 10-29 3-9 5-12 7-11z" fill="#E6E4DA"/>
<path transform="translate(422,95)" d="m0 0 7 1 14 5 12 10 3 3v2h2l2 4 5 5 12 4 9 5 11 9 2 4-3-1-5-5-10-7-8-4-10-3-8-10v-2l-3-1-5-5-10-7-8-3-14-1-13 3-9 5-7 5-4 4-7-1-9-3-9-1-17 2-16 8-10 7-3 4h-2l-2 4-7 12-3 11v27l-6 7-7 6-5 6-3 6-2 9v17l3 12 4 6 2 5 5 6h-3l-5-6-6-11-3-13v-10l3-16 6-10 6-7 8-7 1-4v-26l5-14 10-13 9-8 13-8 8-3 8-1h18l11 3 5 1 11-10 12-5z" fill="#E4D5BA"/>
<path transform="translate(314,640)" d="m0 0h7l1 6-6 18-5 9-6 5-4 1-4-4v-9l2-9 6-10 7-6z" fill="#E3E1D6"/>
<path transform="translate(638,639)" d="m0 0h5l1 1v7l-6 18-6 9-6 5-5-1-2-3v-7l4-13 7-10 6-5z" fill="#E3E1D5"/>
<path transform="translate(374,639)" d="m0 0 6 1 1 7-4 12-8 15-6 5h-5l-2-3v-9l3-10 5-9 5-6z" fill="#E3E0D4"/>
<path transform="translate(820,741)" d="m0 0h8l5 3v-3l4 1v23l-3 6-7 3-9-1-3-2v-3l4 1h12l2-8-7 3-9-2-4-6v-7l4-6z" fill="#436347"/>
<path transform="translate(597,731)" d="m0 0 4 1v32h-4v-3l-4 3h-9l-6-5-1-2v-9l5-6 2-1h8l5 3z" fill="#436347"/>
<path transform="translate(290,733)" d="m0 0h16l5 3 3 5v6l-4 5-4 2h-12l-1 10h-3z" fill="#436347"/>
<path transform="translate(372,741)" d="m0 0h9l4 2 3 5v6l-18 1 2 4 2 1h8l4-1v3l-3 2h-10l-5-3-3-6 2-10z" fill="#436347"/>
<path transform="translate(557,741)" d="m0 0h9l5 4 1 2v7l-18 1 2 4 5 2 5-1 4-1-1 4-8 2-8-3-3-5v-9l5-6z" fill="#436347"/>
<path transform="translate(848,741)" d="m0 0h10l4 4 1 3v16h-4v-2l-3 2h-9l-4-4v-5l5-4 10-1-1-4-1-1h-7l-4 1v-3z" fill="#436347"/>
<path transform="translate(465,393)" d="m0 0 5 5 4 8 1 6-4 1-9-4-15-4-28-4-21-1 35 8 27 9 16 6 23 11 1 2-6-2-17-8-24-9-25-8-24-5-15-3-1-2 4-1h16l21 2 24 4 18 6 1 1-1-6-5-9z" fill="#C6B89B"/>
<path transform="translate(770,733)" d="m0 0h10l6 4 4 6v11l-4 6-5 4-7 1-9-3-5-6-1-2v-11l5-7zm1 3-6 4-3 6v6l4 6 4 3h9l7-6 1-3v-7l-3-5-3-3-3-1z" fill="#436347"/>
<path transform="translate(811,537)" d="m0 0 5 2 12 5 16 3 4 4v7l-1 2-10 1h-145l-3-2v-10h3l-1 1v8h154v-8l-9-2-15-4-8-4z" fill="#C6B89B"/>
<path transform="translate(455,733)" d="m0 0h10l6 3v3l-6-2h-9l-5 3-2 4v9l4 6 8 2 6-1 1-1 1-7h-5v-4h8v13l-5 3-10 1-8-4-4-6-1-3v-7l3-6 6-5z" fill="#436347"/>
<path transform="translate(761,67)" d="m0 0h22l16 6 10 7 4 2 7-3 8-2h22l13 3 9 5 5 3v2l-5-2-12-6-7-2h-26l-10 3-3 2h-4l-5-5-10-6-11-3-1-1h-21l-10 3-6 2 4-4z" fill="#E4D5BA"/>
<path transform="translate(461,545)" d="m0 0h9l7 2 1 1v9l-1 2-10 1h-113l-1-1v-11h1l1 9h120l1-1v-6l-1-2-14-2z" fill="#C6B89B"/>
<path transform="translate(294,736)" d="m0 0h11l4 2 1 2v7l-2 3-3 1h-11l-1-2v-12z" fill="#E4E1D6"/>
<path transform="translate(585,744)" d="m0 0h7l5 5v7l-4 5h-8l-4-4v-9z" fill="#E5E4D9"/>
<path transform="translate(821,744)" d="m0 0h7l5 5v6l-4 5-6 1-5-3-2-4 1-7z" fill="#E5E3D8"/>
<path transform="translate(969,640)" d="m0 0h7l1 1-1 8-1 2h-2l-2 4-6 5-6 1-1-3 7-14z" fill="#E4E1D6"/>
<path transform="translate(872,741)" d="m0 0h3l1 2 3-2h8l5 5 1 7v11l-3 1-1-1-1-17-2-2h-7l-3 3-1 16h-4v-22z" fill="#436347"/>
<path transform="translate(719,741)" d="m0 0 4 1 7 17 5-11 3-7h3l-3 10-7 17-4 5-6 1-3-1v-3l8-1 1-6-8-18z" fill="#436347"/>
<path transform="translate(404,741)" d="m0 0 4 1 7 16v2h2l1-6 5-12 4-1-3 9-8 19-4 4-6 1-2-1 1-4h6l1-1v-6l-8-19z" fill="#436347"/>
<path transform="translate(680,741)" d="m0 0h3l1 14 1 5h8l3-3 1-16h4v23h-4v-2l-3 2h-10l-4-5z" fill="#436347"/>
<path transform="translate(493,741)" d="m0 0h3v2l4-2h9l4 4 1 4v15l-4-1-1-16-3-2-7 1-2 3-1 15h-3z" fill="#436347"/>
<path transform="translate(902,662)" d="m0 0 1 2-5 14h8l4-1-2 3-9 1 1 5h13l7-1-2 2-7 2h-8l-5-3-2-2-9 27-3 7-3 3h-6l-5-4 2-12 3-7 1 3-3 10v6l3 2h6l3-10 10-29 3-9z" fill="#C6B89B"/>
<path transform="translate(226,613)" d="m0 0 2 2-7 35-2 19v15l2 3h8l3-7 6-12 1 2-8 18-3 2h-6l-5-4v-25l4-25 4-15-1-1-4 10-3 7-1-4 8-18z" fill="#C6B89B"/>
<path transform="translate(522,741)" d="m0 0 4 1h2l2-1h8l5 5v18h-3l-1-16-2-3h-7l-3 3-2 16h-3z" fill="#436347"/>
<path transform="translate(321,741)" d="m0 0h3l1 17 2 2h7l3-5 1-14h3v23h-3v-2l-4 2h-9l-4-4-1-18z" fill="#436347"/>
<path transform="translate(918,741)" d="m0 0h10l3 2v3l-5-1h-7l-3 3-1 6 2 5 2 1h8l4-1v3l-7 3-7-1-6-7v-9l5-6z" fill="#436347"/>
<path transform="translate(634,733)" d="m0 0h23l1 3h-10l-1 28h-3l-1-28h-9z" fill="#436347"/>
<path transform="translate(541,607)" d="m0 0 7 1 2 3-1 7-3 3h-7l-3-4 1-6z" fill="#436347"/>
<path transform="translate(268,614)" d="m0 0h2l-1 9-5 12-5 21-2 15v9l2 10 3 4 3 1h8l2-2-2-5 4 4-1 4-1 1h-11l-5-3-4-9v-16l2-15 4-16 5-15 1-4-1-2z" fill="#C6B89B"/>
<path transform="translate(860,643)" d="m0 0 5 1-1 7-6 22v9l3 4 7 1 8-3 3-3h3l-1 7-4 10-1-4 3-7v-3l-8 5h-9l-5-4-2-6 1-9 7-22v-3l-5 2-6 5 2-4z" fill="#C6B89B"/>
<path transform="translate(609,424)" d="m0 0 1 2-9 19-8 19-5 11-8 19-3-1v-14l1-6h1v17l8-19 7-15 12-27z" fill="#C6B89B"/>
<path transform="translate(808,633)" d="m0 0h13l1 1v9l6-7 2 1-7 8-4 4-1-2 2-9-1-3h-10l-8 27-4 13v12l-2-1v-13l8-25 4-14z" fill="#C6B89B"/>
<path transform="translate(925,231)" d="m0 0 1 2-4 6-8 10-2 1-2 21-3 10-6 11-5 5 2-6 3-1 3-9 4-11 1-20 8-8z" fill="#E4D5BA"/>
<path transform="translate(395,731)" d="m0 0h3l1 16v17h-4z" fill="#436347"/>
<path transform="translate(690,608)" d="m0 0h6l2 2v7l-3 11 9 1 2 1v5l-1 1-12 1-2 1-4 13-1-4 3-10 2-2 13-1 1-3h-11l-1-5 3-11v-4h-9z" fill="#C6B89B"/>
<path transform="translate(662,741)" d="m0 0 4 1h2l6-1v3l-5 2-2 2-2 16h-3z" fill="#436347"/>
<path transform="translate(350,741)" d="m0 0h3l2 2 3-2 4 1-1 2-5 3-2 4-1 13h-3z" fill="#436347"/>
<path transform="translate(798,741)" d="m0 0h3v2l4-2h4v3l-6 3-1 2-1 15h-3l-1-20z" fill="#436347"/>
<path transform="translate(710,731)" d="m0 0h3v33h-3z" fill="#436347"/>
<path transform="translate(744,75)" d="m0 0 2 1-12 10-7 8-3 6-8 4-12 5-5 2 5-5 7-3 10-4 4-6 9-10z" fill="#E4D5BA"/>
<path transform="translate(373,744)" d="m0 0h8l4 5v2h-16l1-4z" fill="#E4E1D6"/>
<path transform="translate(561,743)" d="m0 0 5 2 3 3v3h-16l2-5z" fill="#E1DFD2"/>
<path transform="translate(583,643)" d="m0 0h3l1 4-8 26v11l-2-2v-11l8-26-8 7-6 7v-3l8-10z" fill="#C6B89B"/>
<path transform="translate(851,753)" d="m0 0h6l2 1-1 5-4 3h-5l-3-3 1-4z" fill="#E1DED1"/>
<path transform="translate(898,632)" d="m0 0h12l1 4 1 6-4 1 1-9h-10l-8 24-6 12-3 2 2-5 7-15 6-19z" fill="#C6B89B"/>
<path transform="translate(685,611)" d="m0 0 2 1-4 7-3 10-7 3-1 3 5 1-2 9-5 14-2 1 3-10 3-9v-4l-4-2 1-4 3-2h4l3-11z" fill="#C6B89B"/>
<path transform="translate(501,147)" d="m0 0 4 3 8 17 1 6 1 18-2 2-1-9-1-15-9-19z" fill="#E4D5BA"/>
<path transform="translate(413,108)" d="m0 0h16l8 3 2 3-5-1-5-2-11-1-15 3v2l-4 1 5-5z" fill="#E4D5BA"/>
<path transform="translate(1047,659)" d="m0 0 4 1 1 1-1 7-2 1 1-8-4 2-3 6-6 8-4 2-6-1-3-4 1-4 1 5 9 1 4-5 4-7z" fill="#C6B89B"/>
<path transform="translate(239,616)" d="m0 0h1l-1 10-4 28-1 2h2l2-5 1 2-5 8-2-3 5-33z" fill="#C6B89B"/>
<path transform="translate(901,740)" d="m0 0 3 1v23h-3z" fill="#436347"/>
<path transform="translate(481,741)" d="m0 0h3v23h-3z" fill="#436347"/>
<path transform="translate(577,621)" d="m0 0 1 3-5 16-3 9 6-9 2 1-8 11-3 1 2-10z" fill="#C6B89B"/>
<path transform="translate(929,186)" d="m0 0 2 3 2 9v18l-5 14-2 1 4-16 1-7-1-12z" fill="#E4D5BA"/>
<path transform="translate(547,381)" d="m0 0h1l-1 29h-3l-8-16 1-3 7 14v2h2v-19z" fill="#C6B89B"/>
<path transform="translate(697,111)" d="m0 0 2 1-12 11-7 11-3 8h-1v-5l4-8 6-9z" fill="#E4D5BA"/>
<path transform="translate(650,330)" d="m0 0 1 3-5 11 1 1 3-2-2 4-3 5-5 2 2-7 7-15z" fill="#C3B699"/>
<path transform="translate(948,649)" d="m0 0 1 2-6 16-7 6-6 3h-3l1-4 2-1 1 2 6-4 4-3 6-16z" fill="#C6B89B"/>
<path transform="translate(579,284)" d="m0 0 1 2-8 18-2 1 3-9v-2l-5 5 2-5z" fill="#C6B89B"/>
<path transform="translate(562,673)" d="m0 0 1 2-4 10-4 3h-8l-2-1-1-6-2-1 2-2h3l-1 8h8l4-4z" fill="#C6B89B"/>
<path transform="translate(884,95)" d="m0 0 5 3 8 11 3 5 1 7-2-1-4-9-4-6-7-8z" fill="#E4D5BA"/>
<path transform="translate(538,445)" d="m0 0 3 4 5 15 1 9h-3l-3-5 3 1-2-11-4-10z" fill="#C6B89B"/>
<path transform="translate(1e3 648)" d="m0 0h2l2 6 1 12-8 9-1-2 6-7v-15l-4 3 1-5z" fill="#C6B89B"/>
<path transform="translate(313,316)" d="m0 0 4 2 9 6 6 3 7 2-4 1-9-3-9-5z" fill="#E4D5BA"/>
<path transform="translate(666,341)" d="m0 0 2 1-13 16-3 4-2-1 8-10z" fill="#C6B89B"/>
<path transform="translate(966,643)" d="m0 0 1 2-7 14 6-1-1 2-6 1-1-3 7-14z" fill="#C6B89B"/>
<path transform="translate(698,290)" d="m0 0v3l-13 13v-3l9-9z" fill="#CDC1A9"/>
<path transform="translate(609,760)" d="m0 0 4 1-1 8-3 1z" fill="#436347"/>
<path transform="translate(581,645)" d="m0 0 2 1-13 13 2-5 7-8z" fill="#D0C6AF"/>
<path transform="translate(781,255)" d="m0 0 4 1-3 3v3l-6 1z" fill="#EAE7DB"/>
<path transform="translate(994,666)" d="m0 0v3l-5 7h-2l-2 4-2-1z" fill="#C6B89B"/>
</svg>
